<svg xmlns:mydata="http://www.w3.org/2000/svg" mydata:contrastcolor="ffffff" mydata:template="Contrast" mydata:presentation="2.5" mydata:layouttype="undefined" mydata:specialfontid="undefined" mydata:id1="195" mydata:id2="219" mydata:companyname="Digilib Manager" mydata:companytagline="" version="1.1" xmlns="http://www.w3.org/2000/svg" xmlns:xlink="http://www.w3.org/1999/xlink" viewBox="0 0 550 470"><g fill="#101820" fill-rule="none" stroke="none" stroke-width="1" stroke-linecap="butt" stroke-linejoin="miter" stroke-miterlimit="10" stroke-dasharray="" stroke-dashoffset="0" font-family="none" font-weight="none" font-size="none" text-anchor="none" style="mix-blend-mode: normal"><g data-paper-data="{&quot;isGlobalGroup&quot;:true,&quot;bounds&quot;:{&quot;x&quot;:146.94057483128088,&quot;y&quot;:115,&quot;width&quot;:256.1188503374382,&quot;height&quot;:240}}"><g data-paper-data="{&quot;isSecondaryText&quot;:true}" fill-rule="nonzero"><path d="M179.87571,342.98977h1.86218c0.44419,0 0.67768,0.23348 0.70045,0.70045l0.47836,11.08768h-1.70843l-0.41002,-10.37014h-0.34169l-2.3918,8.38837c-0.10251,0.38724 -0.34738,0.58086 -0.73462,0.58086h-1.48633c-0.39863,0 -0.6492,-0.19362 -0.75171,-0.58086l-2.40888,-8.38837h-0.3246l-0.39294,10.37014h-1.69134l0.44419,-11.08768c0.02278,-0.46697 0.25626,-0.70045 0.70045,-0.70045h1.89635c0.35307,0 0.59225,0.19362 0.71754,0.58086l1.99886,6.90204c0.1139,0.41002 0.24487,0.93963 0.39294,1.58884h0.30752c0.13667,-0.60364 0.27335,-1.13895 0.41002,-1.60592l1.98177,-6.88495c0.12528,-0.38724 0.37585,-0.58086 0.75171,-0.58086z" data-paper-data="{&quot;glyphName&quot;:&quot;M&quot;,&quot;glyphIndex&quot;:0,&quot;firstGlyphOfWord&quot;:true,&quot;word&quot;:1}"></path><path d="M215.94384,351.22438h-4.69817l-1.09339,3.55352h-1.74259l3.6902,-11.32686c0.09112,-0.30752 0.30182,-0.46127 0.63212,-0.46127h1.74259c0.34169,0 0.5467,0.15376 0.61503,0.46127l3.70728,11.32686h-1.75968zM215.49965,349.73805l-1.38382,-4.47607c-0.03417,-0.10251 -0.08257,-0.26196 -0.14522,-0.47836c-0.06264,-0.2164 -0.11105,-0.37585 -0.14522,-0.47836h-0.46127l-0.27335,0.95672l-1.38382,4.47607z" data-paper-data="{&quot;glyphName&quot;:&quot;A&quot;,&quot;glyphIndex&quot;:1,&quot;word&quot;:1}"></path><path d="M251.91312,342.98977v11.12185c0,0.44419 -0.21071,0.66629 -0.63212,0.66629h-1.623c-0.34169,0 -0.58656,-0.17654 -0.73462,-0.52961l-3.67311,-8.0296c-0.41002,-0.88838 -0.64351,-1.43508 -0.70045,-1.64009h-0.23918c0.05695,0.45558 0.08542,1.00228 0.08542,1.64009v8.55921h-1.70843v-11.12185c0,-0.44419 0.2164,-0.66629 0.6492,-0.66629h1.57175c0.3303,0 0.58086,0.17654 0.75171,0.52961l3.57061,7.82459c0.04556,0.10251 0.12528,0.2705 0.23918,0.50399c0.1139,0.23348 0.21925,0.45558 0.31606,0.66629c0.09681,0.21071 0.18508,0.40717 0.26481,0.58941h0.25626c-0.05695,-0.68337 -0.08542,-1.29271 -0.08542,-1.82802v-8.28586z" data-paper-data="{&quot;glyphName&quot;:&quot;N&quot;,&quot;glyphIndex&quot;:2,&quot;word&quot;:1}"></path><path d="M283.338,351.22438h-4.69817l-1.09339,3.55352h-1.74259l3.6902,-11.32686c0.09112,-0.30752 0.30182,-0.46127 0.63212,-0.46127h1.74259c0.34169,0 0.5467,0.15376 0.61503,0.46127l3.70728,11.32686h-1.75968zM282.89381,349.73805l-1.38382,-4.47607c-0.03417,-0.10251 -0.08257,-0.26196 -0.14522,-0.47836c-0.06264,-0.2164 -0.11105,-0.37585 -0.14522,-0.47836h-0.46127l-0.27335,0.95672l-1.38382,4.47607z" data-paper-data="{&quot;glyphName&quot;:&quot;A&quot;,&quot;glyphIndex&quot;:3,&quot;word&quot;:1}"></path><path d="M317.17973,347.97837v6.79953h-1.26423l-0.17084,-1.1959c-0.99089,0.94533 -2.15831,1.41799 -3.50227,1.41799c-1.2984,0 -2.23804,-0.49544 -2.8189,-1.48633c-0.58086,-0.99089 -0.8713,-2.55125 -0.8713,-4.68109c0,-1.58314 0.16515,-2.81036 0.49544,-3.68166c0.3303,-0.8713 0.84852,-1.48633 1.55467,-1.8451c0.70615,-0.35877 1.69704,-0.53815 2.97266,-0.53815c1.23007,0 2.32346,0.11959 3.28018,0.35877l-0.17084,1.2984c-0.95672,-0.09112 -1.95899,-0.13667 -3.00683,-0.13667c-0.53531,0 -0.96811,0.03132 -1.2984,0.09396c-0.3303,0.06264 -0.63781,0.18508 -0.92255,0.36731c-0.28474,0.18223 -0.49829,0.44989 -0.64066,0.80296c-0.14237,0.35307 -0.25342,0.80296 -0.33314,1.34966c-0.07973,0.5467 -0.11959,1.23007 -0.11959,2.05011c0,1.69704 0.17369,2.88154 0.52107,3.55352c0.34738,0.67198 0.95957,1.00797 1.83656,1.00797c0.83143,0 1.75968,-0.34738 2.78473,-1.04214v-4.49316z" data-paper-data="{&quot;glyphName&quot;:&quot;G&quot;,&quot;glyphIndex&quot;:4,&quot;word&quot;:1}"></path><path d="M348.11464,353.35991l0.08542,1.31549c-1.03644,0.09112 -2.72209,0.13667 -5.05694,0.13667c-0.72893,0 -1.3041,-0.19077 -1.72551,-0.57232c-0.42141,-0.38155 -0.63781,-0.89692 -0.6492,-1.54613v-7.61958c0.01139,-0.6492 0.22779,-1.16458 0.6492,-1.54613c0.42141,-0.38155 0.99658,-0.57232 1.72551,-0.57232c2.33485,0 4.02049,0.04556 5.05694,0.13667l-0.08542,1.33257h-4.68109c-0.34169,0 -0.58371,0.08257 -0.72608,0.24772c-0.14237,0.16515 -0.21355,0.44704 -0.21355,0.84567v2.35763h4.97152v1.38382h-4.97152v3.00683c0,0.39863 0.07118,0.68052 0.21355,0.84567c0.14237,0.16515 0.3844,0.24772 0.72608,0.24772z" data-paper-data="{&quot;glyphName&quot;:&quot;E&quot;,&quot;glyphIndex&quot;:5,&quot;word&quot;:1}"></path><path d="M379.72564,354.7779h-1.82802l-1.00797,-3.67311c-0.25057,-0.78588 -0.74601,-1.17881 -1.48633,-1.17881l-2.42596,-0.01708v4.86901h-1.69134v-11.78814c0.96811,-0.10251 2.34054,-0.15376 4.11731,-0.15376c1.42369,0 2.42881,0.24487 3.01537,0.73462c0.58656,0.48975 0.87984,1.38382 0.87984,2.68223c0,0.94533 -0.168,1.65717 -0.50399,2.13553c-0.33599,0.47836 -0.89123,0.76879 -1.66571,0.8713v0.08542c0.7631,0.22779 1.25854,0.79727 1.48633,1.70843zM372.97736,348.45673h2.3918c0.84282,-0.01139 1.42084,-0.1623 1.73405,-0.45273c0.31321,-0.29043 0.46982,-0.83998 0.46982,-1.64863c0,-0.79727 -0.15661,-1.33827 -0.46982,-1.623c-0.31321,-0.28474 -0.89123,-0.42711 -1.73405,-0.42711c-1.16173,0 -1.95899,0.00569 -2.3918,0.01708z" data-paper-data="{&quot;glyphName&quot;:&quot;R&quot;,&quot;glyphIndex&quot;:6,&quot;lastGlyphOfWord&quot;:true,&quot;word&quot;:1}"></path></g><g data-paper-data="{&quot;isPrimaryText&quot;:true}" fill-rule="nonzero"><path d="M172.84379,288.19192c3.46221,0 6.49164,0.49611 9.08829,1.48833c2.59666,0.99222 4.84498,2.37499 6.74497,4.14831c2.15332,1.98444 3.8422,4.32776 5.06664,7.02997c1.22444,2.70221 1.83666,5.61553 1.83666,8.73996c0,2.82888 -0.48555,5.46775 -1.45666,7.91663c-0.97111,2.44888 -2.32221,4.62331 -4.05332,6.5233c-1.98444,2.15332 -4.39109,3.85276 -7.21997,5.09831c-2.82888,1.24555 -6.16442,1.86832 -10.00662,1.86832h-23.11656c-1.85777,0 -2.78665,-0.90777 -2.78665,-2.72332v-37.42983c0,-1.77333 0.92888,-2.65999 2.78665,-2.65999zM159.22719,299.52854c-0.54889,0 -0.82333,0.29555 -0.82333,0.88666v18.42992c0,0.59111 0.27444,0.88666 0.82333,0.88666h13.61661c2.02666,0 3.73665,-0.29555 5.12998,-0.88666c1.39333,-0.59111 2.55443,-1.39333 3.48332,-2.40666c0.84444,-0.88666 1.49888,-1.91055 1.96332,-3.07165c0.46444,-1.16111 0.69666,-2.3961 0.69666,-3.70498c0,-1.43555 -0.285,-2.78665 -0.855,-4.05332c-0.57,-1.26666 -1.34055,-2.36443 -2.31166,-3.29332c-0.92888,-0.84444 -2.02666,-1.51999 -3.29332,-2.02666c-1.26666,-0.50666 -2.8711,-0.76 -4.81331,-0.76z" data-paper-data="{&quot;glyphName&quot;:&quot;D&quot;,&quot;glyphIndex&quot;:0,&quot;firstGlyphOfWord&quot;:true,&quot;word&quot;:1}"></path><path d="M212.68028,288.19192v42.81314h-11.52661v-42.81314z" data-paper-data="{&quot;glyphName&quot;:&quot;I&quot;,&quot;glyphIndex&quot;:1,&quot;word&quot;:1}"></path><path d="M240.86349,331.00506c-3.8422,0 -7.17775,-0.62277 -10.00662,-1.86832c-2.82888,-1.24555 -5.23553,-2.94499 -7.21997,-5.09831c-1.7311,-1.89999 -3.08221,-4.07443 -4.05332,-6.5233c-0.97111,-2.44888 -1.45666,-5.08775 -1.45666,-7.91663c0,-3.12443 0.61222,-6.03775 1.83666,-8.73996c1.22444,-2.70221 2.91332,-5.04553 5.06664,-7.02997c1.89999,-1.77333 4.14831,-3.1561 6.74497,-4.14831c2.59666,-0.99222 5.62609,-1.48833 9.08829,-1.48833h23.11656v11.33662h-23.11656c-1.94221,0 -3.54665,0.25333 -4.81331,0.76c-1.26666,0.50666 -2.36443,1.18222 -3.29332,2.02666c-0.97111,0.92888 -1.74166,2.02666 -2.31166,3.29332c-0.57,1.26666 -0.855,2.61777 -0.855,4.05332c0,1.30888 0.23222,2.54388 0.69666,3.70498c0.46444,1.16111 1.11888,2.18499 1.96332,3.07165c0.92888,1.01333 2.08999,1.84721 3.48332,2.50166c1.39333,0.65444 3.10332,0.98166 5.12998,0.98166h10.95662c0.54889,0 0.82333,-0.29555 0.82333,-0.88666v-11.46328h11.39995v20.70991c0,1.81555 -0.90777,2.72332 -2.72332,2.72332z" data-paper-data="{&quot;glyphName&quot;:&quot;G&quot;,&quot;glyphIndex&quot;:2,&quot;word&quot;:1}"></path><path d="M281.77664,288.19192v42.81314h-11.52661v-42.81314z" data-paper-data="{&quot;glyphName&quot;:&quot;I&quot;,&quot;glyphIndex&quot;:3,&quot;word&quot;:1}"></path><path d="M301.85321,331.00506c-2.61777,0 -4.82387,-0.285 -6.6183,-0.855c-1.79444,-0.57 -3.22999,-1.43555 -4.30665,-2.59666c-1.07666,-1.16111 -1.84721,-2.61777 -2.31166,-4.36998c-0.46444,-1.75221 -0.69666,-3.78943 -0.69666,-6.11164v-28.87987h11.52661v27.80321c0,1.56222 0.26389,2.62832 0.79166,3.19832c0.52778,0.57 1.53055,0.855 3.00832,0.855h29.7032v10.95662z" data-paper-data="{&quot;glyphName&quot;:&quot;L&quot;,&quot;glyphIndex&quot;:4,&quot;word&quot;:1}"></path><path d="M348.973,288.19192v42.81314h-11.52661v-42.81314z" data-paper-data="{&quot;glyphName&quot;:&quot;I&quot;,&quot;glyphIndex&quot;:5,&quot;word&quot;:1}"></path><path d="M388.87282,288.19192c4.51776,0 8.02219,1.35111 10.51329,4.05332c0.97111,1.05555 1.75221,2.29055 2.34332,3.70498c0.59111,1.41444 0.88666,3.02943 0.88666,4.84498c0,1.85777 -0.36944,3.5361 -1.10833,5.03498c-0.73889,1.49888 -1.80499,2.71277 -3.19832,3.64165c1.60444,0.84444 2.79721,2.1111 3.57832,3.79998c0.78111,1.68888 1.17166,3.52554 1.17166,5.50998c0,1.51999 -0.26389,2.95554 -0.79166,4.30665c-0.52778,1.35111 -1.25611,2.57554 -2.18499,3.67332c-1.09777,1.30888 -2.50166,2.34332 -4.21165,3.10332c-1.70999,0.76 -3.83165,1.13999 -6.36497,1.13999h-31.22319c-1.89999,0 -2.84999,-0.90777 -2.84999,-2.72332v-37.42983c0,-1.77333 0.95,-2.65999 2.84999,-2.65999zM366.89625,319.66845c0,0.63333 0.29555,0.95 0.88666,0.95h18.99991c0.84444,0 1.53055,-0.11611 2.05832,-0.34833c0.52778,-0.23222 0.96055,-0.53833 1.29833,-0.91833c0.59111,-0.71777 0.88666,-1.51999 0.88666,-2.40666c0,-0.84444 -0.31667,-1.62555 -0.95,-2.34332c-0.33778,-0.38 -0.76,-0.67555 -1.26666,-0.88666c-0.50666,-0.21111 -1.18222,-0.31667 -2.02666,-0.31667h-19.88658zM386.84616,305.73518c0.80222,0 1.4461,-0.11611 1.93166,-0.34833c0.48555,-0.23222 0.89722,-0.55944 1.23499,-0.98166c0.50666,-0.63333 0.76,-1.32999 0.76,-2.08999c0,-0.76 -0.25333,-1.45666 -0.76,-2.08999c-0.33778,-0.38 -0.74944,-0.68611 -1.23499,-0.91833c-0.48555,-0.23222 -1.12944,-0.34833 -1.93166,-0.34833h-19.06325c-0.59111,0 -0.88666,0.31667 -0.88666,0.95v5.82664z" data-paper-data="{&quot;glyphName&quot;:&quot;B&quot;,&quot;glyphIndex&quot;:6,&quot;lastGlyphOfWord&quot;:true,&quot;word&quot;:1}"></path></g><g data-paper-data="{&quot;isIcon&quot;:&quot;true&quot;,&quot;selectedEffects&quot;:{&quot;container&quot;:&quot;&quot;,&quot;transformation&quot;:&quot;&quot;,&quot;pattern&quot;:&quot;&quot;},&quot;fillRule&quot;:&quot;evenodd&quot;,&quot;fillRuleOriginal&quot;:&quot;evenodd&quot;,&quot;iconType&quot;:&quot;icon&quot;,&quot;rawIconId&quot;:&quot;198282&quot;,&quot;combineTerms&quot;:&quot;library&quot;,&quot;iconStyle&quot;:&quot;standalone&quot;,&quot;bounds&quot;:{&quot;x&quot;:223.42763932407416,&quot;y&quot;:115,&quot;width&quot;:103.14472135185167,&quot;height&quot;:145.0173500408033},&quot;suitableAsStandaloneIcon&quot;:true}" fill-rule="evenodd"><path d="M274.99951,115c-28.4827,0.00008 -51.57172,23.08998 -51.57187,51.57252c0,28.48254 53.14209,93.44483 53.14209,93.44483c0,0 50.00263,-64.96229 50.00263,-93.44483c0,-28.48254 -23.09031,-51.57244 -51.57284,-51.57252zM274.99951,125.46832c22.70118,0.00016 41.1042,18.40302 41.1042,41.1042c0,22.70118 -18.40302,41.1042 -41.1042,41.1042c-22.70102,0 -41.10404,-18.40302 -41.10404,-41.1042c0,-22.70118 18.40302,-41.10404 41.10404,-41.1042zM279.55999,140.45699c-8.15787,4.12316 -24.60719,12.34339 -24.60719,12.34339v8.8741l14.8878,31.01873l1.52445,-0.31259l23.68133,-15.50526v-1.64836l-23.74095,15.44032l-0.06445,-6.62085l23.52295,-14.70315l-15.20394,-28.89197z" data-paper-data="{&quot;isPathIcon&quot;:true}"></path></g></g></g></svg>